# xmcd
#
# Track frame offsets: 
#        150
#        18215
#        39052
#        47602
#        60440
#        74465
#        96165
#        106060
#        119877
#        131565
#        147040
#        157140
#        167077
#        179752
#        192715
#        209440
#        221665
#        233225
#        247902
#
# Disc length: 3476 seconds
#
# Revision: 0
# Processed by: cddbd v1.5.2PL0 Copyright (c) Steve Scherf et al.
# Submitted via: ExactAudioCopy v1.0b3
#
DISCID=170d9213
DTITLE=Various Artist - Cowboy Classics (Disk 3)
DYEAR=1900
DGENRE=Country
TTITLE0=Marty Robbins - Big Iron
TTITLE1=Willie Nelson - Desperadoes Waiting For a Train
TTITLE2=Johnny Cash - The Rebel Johnny Yuma
TTITLE3=Randy Travis - Cowboy Boogie
TTITLE4=Willie Nelson - My Heroes Have Always Been Cowboys
TTITLE5=Willie Nelson - Panch and Lefty
TTITLE6=Johnny Western - The Ballad of Paladin
TTITLE7=Michael Martin Murphey - Let the Cowboy Dance
TTITLE8=Chris LeDoux - Whatcha Gonna Do With a Cowboy?
TTITLE9=Rex Allen - Last of the Silver Screen Cowboys
TTITLE10=Bob Wills - Deep in the Heart of Texas
TTITLE11=Bob Wills - Across the Alley From the Alamo
TTITLE12=Bob Wills - San Antonio Rose
TTITLE13=Gene Autry - The Yellow Rose of Texas
TTITLE14=Johnny Cash - The Streets of Laredo
TTITLE15=Eddy Arnold - Casey Jones
TTITLE16=Hank Snow - The Wabash Cannonball
TTITLE17=Merle Haggard - Train Whistle Blues
TTITLE18=The Cattlemen - She'll Be Comin' Round the Mountain
EXTD=
EXTT0=
EXTT1=
EXTT2=
EXTT3=
EXTT4=
EXTT5=
EXTT6=
EXTT7=
EXTT8=
EXTT9=
EXTT10=
EXTT11=
EXTT12=
EXTT13=
EXTT14=
EXTT15=
EXTT16=
EXTT17=
EXTT18=
PLAYORDER=
